<svg width="148" height="32" viewBox="0 0 148 32" fill="none" xmlns="http://www.w3.org/2000/svg">
<mask id="mask0" mask-type="alpha" maskUnits="userSpaceOnUse" x="0" y="0" width="32" height="32">
<path fill-rule="evenodd" clip-rule="evenodd" d="M0 0H32V32H0V0Z" fill="white"/>
</mask>
<g mask="url(#mask0)">
<path fill-rule="evenodd" clip-rule="evenodd" d="M0 7.125C0 3.18997 3.18997 0 7.125 0L24.875 0C28.81 0 32 3.18997 32 7.125V24.875C32 28.81 28.81 32 24.875 32H7.125C3.18997 32 0 28.81 0 24.875L0 7.125Z" fill="#FAFAFA"/>
<mask id="mask1" mask-type="alpha" maskUnits="userSpaceOnUse" x="0" y="0" width="32" height="32">
<path fill-rule="evenodd" clip-rule="evenodd" d="M0 7.125C0 3.18997 3.18997 0 7.125 0L24.875 0C28.81 0 32 3.18997 32 7.125V24.875C32 28.81 28.81 32 24.875 32H7.125C3.18997 32 0 28.81 0 24.875L0 7.125Z" fill="white"/>
</mask>
<g mask="url(#mask1)">
<path fill-rule="evenodd" clip-rule="evenodd" d="M0 0H32V32H0V0Z" fill="url(#paint0_linear)"/>
<path fill-rule="evenodd" clip-rule="evenodd" d="M15.8635 25.3093C15.7646 25.3062 15.6657 25.3002 15.5667 25.3003C12.7185 25.3026 9.87037 25.3038 7.02229 25.312C6.82629 25.3126 6.75032 25.2815 6.75078 25.0564C6.75748 22.1653 6.74565 19.2742 6.75188 16.3832C6.75633 14.3167 8.14381 12.5608 10.1478 12.0596C10.4891 11.9743 10.8354 11.9171 11.19 11.9435C11.1364 12.0588 11.145 12.182 11.145 12.3039C11.1448 15.0595 11.1448 17.8151 11.145 20.5707C11.145 20.9205 11.1458 20.921 11.506 20.9211C14.379 20.9214 17.252 20.9215 20.125 20.9217C20.1115 20.9796 20.089 21.037 20.086 21.0954C19.9818 23.1306 18.6081 24.754 16.613 25.196C16.4719 25.2273 16.3292 25.2517 16.1873 25.2793C16.0793 25.2893 15.9714 25.2993 15.8635 25.3093Z" fill="white"/>
<path fill-rule="evenodd" clip-rule="evenodd" d="M16.7137 6.77469L16.6702 6.77464C14.281 6.77191 12.3464 8.70653 12.3491 11.0958L12.3587 19.4017C12.3586 19.4936 12.3952 19.5818 12.4602 19.6469L16.7236 15.3835L16.7137 6.77469Z" fill="white" fill-opacity="0.85098"/>
<path fill-rule="evenodd" clip-rule="evenodd" d="M21.0445 11.0625L21.0396 6.77981L16.7135 6.77482L16.7231 15.3839L21.0445 11.0625Z" fill="white" fill-opacity="0.6"/>
<path fill-rule="evenodd" clip-rule="evenodd" d="M25.221 6.88599C25.156 6.82094 25.0679 6.78431 24.9761 6.78415L21.0394 6.77992L21.0443 11.0626L25.221 6.88599Z" fill="white" fill-opacity="0.4"/>
<path fill-rule="evenodd" clip-rule="evenodd" d="M12.705 19.7486L21.0109 19.7582C23.4002 19.7609 25.3348 17.8263 25.3321 15.4371L16.7233 15.4271L16.7232 15.3837L12.4599 19.6471C12.5249 19.7121 12.6131 19.7486 12.705 19.7486Z" fill="white" fill-opacity="0.94902"/>
<path fill-rule="evenodd" clip-rule="evenodd" d="M21.0449 11.0625L16.7235 15.3839L16.7239 15.4271L25.3326 15.437L25.3277 11.1109L21.045 11.1059L21.0449 11.0625Z" fill="white" fill-opacity="0.74902"/>
<path fill-rule="evenodd" clip-rule="evenodd" d="M21.0441 11.1058L25.3268 11.1107L25.3241 7.13212C25.3239 7.03955 25.2867 6.95082 25.2207 6.88575L21.0441 11.0624L21.0441 11.1058Z" fill="white" fill-opacity="0.501961"/>
<path fill-rule="evenodd" clip-rule="evenodd" d="M4.01758 4.14258H6.28406C6.51602 4.14258 6.70406 4.33062 6.70406 4.56258C6.70406 4.79454 6.51602 4.98258 6.28406 4.98258H4.85758V6.30391C4.85758 6.53587 4.66954 6.72391 4.43758 6.72391C4.20562 6.72391 4.01758 6.53587 4.01758 6.30391V4.14258Z" fill="white"/>
<path fill-rule="evenodd" clip-rule="evenodd" d="M27.9824 4.14258H25.7159C25.484 4.14258 25.2959 4.33062 25.2959 4.56258C25.2959 4.79454 25.484 4.98258 25.7159 4.98258H27.1424V6.30391C27.1424 6.53587 27.3305 6.72391 27.5624 6.72391C27.7944 6.72391 27.9824 6.53587 27.9824 6.30391V4.14258Z" fill="white"/>
<path fill-rule="evenodd" clip-rule="evenodd" d="M4.01758 27.9204H6.28406C6.51602 27.9204 6.70406 27.7324 6.70406 27.5004C6.70406 27.2685 6.51602 27.0804 6.28406 27.0804H4.85758V25.7591C4.85758 25.5271 4.66954 25.3391 4.43758 25.3391C4.20562 25.3391 4.01758 25.5271 4.01758 25.7591V27.9204Z" fill="white"/>
<path fill-rule="evenodd" clip-rule="evenodd" d="M27.9824 27.9204H25.7159C25.484 27.9204 25.2959 27.7324 25.2959 27.5004C25.2959 27.2685 25.484 27.0804 25.7159 27.0804H27.1424V25.7591C27.1424 25.5271 27.3305 25.3391 27.5624 25.3391C27.7944 25.3391 27.9824 25.5271 27.9824 25.7591V27.9204Z" fill="white"/>
</g>
</g>
<path d="M49.8312 22.0901C49.2423 22.0901 48.7899 21.9351 48.474 21.6251C48.158 21.3152 48 20.8643 48 20.2725V8.98665C48 8.40897 48.1723 7.95106 48.517 7.6129C48.8761 7.26066 49.3572 7.08454 49.9604 7.08454C50.578 7.08454 51.0663 7.26066 51.4254 7.6129C51.7844 7.95106 51.964 8.40897 51.964 8.98665V18.941H56.9189C58.1684 18.941 58.7932 19.4694 58.7932 20.5261C58.7932 21.0615 58.6352 21.4561 58.3192 21.7097C58.0176 21.9633 57.5508 22.0901 56.9189 22.0901H49.8312Z" fill="#307B51"/>
<path d="M69.3078 18.7508C69.6381 18.7508 69.9038 18.8776 70.1049 19.1313C70.3204 19.3849 70.4281 19.716 70.4281 20.1246C70.4281 20.6882 70.148 21.1179 69.5879 21.4138C69.0996 21.6533 68.5179 21.8576 67.8429 22.0267C67.1822 22.1817 66.5718 22.2592 66.0117 22.2592C64.834 22.2592 63.8071 22.0408 62.931 21.604C62.0549 21.1672 61.3799 20.5402 60.906 19.723C60.432 18.9058 60.195 17.9477 60.195 16.8487C60.195 15.8061 60.4176 14.8762 60.8629 14.059C61.3225 13.2277 61.9544 12.5866 62.7587 12.1357C63.5773 11.6707 64.4965 11.4383 65.5162 11.4383C66.5072 11.4383 67.3761 11.6496 68.1229 12.0723C68.8698 12.495 69.4443 13.0938 69.8464 13.8687C70.2629 14.6437 70.4712 15.5525 70.4712 16.5951C70.4712 16.9192 70.3922 17.1728 70.2342 17.356C70.0906 17.525 69.8751 17.6096 69.5879 17.6096H63.9005C64.001 18.2859 64.2236 18.772 64.5683 19.0679C64.913 19.3637 65.4229 19.5117 66.0979 19.5117C66.4569 19.5117 66.7873 19.4765 67.0889 19.406C67.3905 19.3215 67.728 19.2088 68.1014 19.0679C68.3168 18.9833 68.5251 18.9129 68.7262 18.8565C68.9416 18.7861 69.1355 18.7508 69.3078 18.7508ZM65.6239 13.9744C65.1213 13.9744 64.7191 14.1364 64.4175 14.4605C64.1159 14.7705 63.9364 15.2284 63.8789 15.8343H67.2612C67.175 14.5944 66.6293 13.9744 65.6239 13.9744Z" fill="#307B51"/>
<path d="M77.8997 11.4383C79.537 11.4383 80.7435 11.8257 81.519 12.6007C82.3089 13.3615 82.7039 14.5239 82.7039 16.0879V20.505C82.7039 21.0404 82.5387 21.4631 82.2084 21.7731C81.8924 22.069 81.4472 22.2169 80.8727 22.2169C80.37 22.2169 79.9535 22.076 79.6232 21.7942C79.3072 21.5124 79.1349 21.132 79.1062 20.6529C78.9051 21.1602 78.5676 21.5547 78.0936 21.8365C77.6197 22.1183 77.0524 22.2592 76.3917 22.2592C75.6593 22.2592 74.9986 22.1183 74.4097 21.8365C73.8209 21.5406 73.3541 21.139 73.0094 20.6318C72.6791 20.1105 72.5139 19.5258 72.5139 18.8776C72.5139 18.1309 72.7078 17.5391 73.0956 17.1023C73.4978 16.6515 74.1297 16.3274 74.9914 16.1301C75.8531 15.9329 77.0165 15.8343 78.4814 15.8343H79.0631V15.5806C79.0631 15.0875 78.9482 14.7353 78.7184 14.5239C78.4886 14.2985 78.1008 14.1858 77.5551 14.1858C76.9662 14.1858 76.1045 14.383 74.9699 14.7775C74.6395 14.8902 74.3595 14.9466 74.1297 14.9466C73.7706 14.9466 73.4834 14.8198 73.268 14.5662C73.0525 14.3126 72.9448 13.9815 72.9448 13.5729C72.9448 13.2629 73.0094 13.0093 73.1387 12.812C73.268 12.6148 73.4762 12.4386 73.7634 12.2836C74.2661 12.03 74.8981 11.8257 75.6593 11.6707C76.4204 11.5158 77.1673 11.4383 77.8997 11.4383ZM77.2965 19.7442C77.8136 19.7442 78.2373 19.568 78.5676 19.2158C78.8979 18.8495 79.0631 18.3845 79.0631 17.8209V17.5673H78.7184C77.7992 17.5673 77.1457 17.6518 76.758 17.8209C76.3702 17.9759 76.1763 18.2436 76.1763 18.624C76.1763 18.9481 76.2768 19.2158 76.4779 19.4271C76.6933 19.6385 76.9662 19.7442 77.2965 19.7442Z" fill="#307B51"/>
<path d="M91.7612 9.87431C91.2442 9.91657 90.8779 10.0786 90.6625 10.3604C90.4614 10.6281 90.3609 10.9874 90.3609 11.4383V11.6919H91.5458C92.6947 11.6919 93.2692 12.1498 93.2692 13.0656C93.2692 13.9956 92.6947 14.4605 91.5458 14.4605H90.3609V20.4416C90.3609 21.0193 90.1742 21.4561 89.8008 21.7519C89.4417 22.0478 88.9893 22.1958 88.4435 22.1958C87.8978 22.1958 87.4382 22.0478 87.0648 21.7519C86.7057 21.4561 86.5262 21.0193 86.5262 20.4416V14.4605H85.9014C84.7525 14.4605 84.178 13.9956 84.178 13.0656C84.178 12.1498 84.7525 11.6919 85.9014 11.6919H86.5262C86.5549 10.3393 86.9642 9.28254 87.7542 8.52169C88.5584 7.74676 89.6428 7.30997 91.0072 7.21135L91.5673 7.16908C91.6822 7.15499 91.833 7.14794 92.0197 7.14794C92.6373 7.14794 93.0825 7.26066 93.3554 7.4861C93.6283 7.71153 93.7647 8.0356 93.7647 8.45829C93.7647 8.88098 93.6354 9.21209 93.3769 9.45161C93.1184 9.67705 92.7665 9.80386 92.3213 9.83204L91.7612 9.87431Z" fill="#307B51"/>
<path d="M100.793 22.2803C99.6436 22.2803 98.5736 22.1606 97.5826 21.921C96.606 21.6674 95.8017 21.3222 95.1698 20.8854C94.9256 20.7023 94.7461 20.512 94.6312 20.3148C94.5307 20.1175 94.4804 19.8639 94.4804 19.5539C94.4804 19.1313 94.6097 18.7649 94.8682 18.4549C95.1267 18.145 95.4283 17.99 95.773 17.99C95.9597 17.99 96.1392 18.0182 96.3116 18.0745C96.4839 18.1309 96.6994 18.2366 96.9579 18.3915C97.5467 18.7156 98.1284 18.9481 98.7029 19.089C99.2917 19.2299 99.9524 19.3003 100.685 19.3003C101.532 19.3003 102.171 19.1806 102.602 18.941C103.047 18.6874 103.27 18.3211 103.27 17.842C103.27 17.518 103.062 17.2432 102.645 17.0178C102.243 16.7783 101.468 16.5458 100.319 16.3204C98.8968 16.0245 97.7837 15.6722 96.9794 15.2636C96.1751 14.855 95.6078 14.376 95.2775 13.8265C94.9615 13.2629 94.8035 12.5866 94.8035 11.7976C94.8035 10.8958 95.0764 10.0786 95.6222 9.34594C96.168 8.61327 96.9148 8.04264 97.8627 7.63404C98.825 7.21135 99.9021 7 101.094 7C102.143 7 103.076 7.11272 103.895 7.33815C104.713 7.56359 105.46 7.91583 106.135 8.39489C106.394 8.57805 106.573 8.77531 106.674 8.98665C106.789 9.18391 106.846 9.43048 106.846 9.72636C106.846 10.1491 106.717 10.5154 106.458 10.8254C106.214 11.1353 105.92 11.2903 105.575 11.2903C105.388 11.2903 105.216 11.2692 105.058 11.2269C104.9 11.1706 104.678 11.0578 104.39 10.8888C104.318 10.8465 104.11 10.7408 103.766 10.5717C103.435 10.3886 103.04 10.2477 102.581 10.1491C102.135 10.0363 101.647 9.97998 101.116 9.97998C100.383 9.97998 99.7944 10.1209 99.3492 10.4027C98.9039 10.6704 98.6813 11.0297 98.6813 11.4805C98.6813 11.7482 98.7603 11.9666 98.9183 12.1357C99.0763 12.3048 99.3707 12.4739 99.8016 12.6429C100.232 12.7979 100.872 12.96 101.719 13.129C103.098 13.4249 104.182 13.7842 104.972 14.2069C105.762 14.6155 106.322 15.0946 106.652 15.644C106.983 16.1935 107.148 16.8417 107.148 17.5884C107.148 18.5184 106.882 19.3426 106.351 20.0612C105.819 20.7657 105.072 21.3152 104.11 21.7097C103.162 22.0901 102.056 22.2803 100.793 22.2803Z" fill="#307B51"/>
<path d="M117.009 11.4383C118.273 11.4383 119.213 11.8116 119.831 12.5584C120.449 13.2911 120.757 14.4112 120.757 15.9188V20.4839C120.757 21.0193 120.585 21.442 120.24 21.7519C119.896 22.0619 119.429 22.2169 118.84 22.2169C118.251 22.2169 117.784 22.0619 117.44 21.7519C117.095 21.442 116.923 21.0193 116.923 20.4839V16.0879C116.923 15.4679 116.808 15.0171 116.578 14.7353C116.362 14.4535 116.032 14.3126 115.587 14.3126C115.012 14.3126 114.553 14.4957 114.208 14.8621C113.878 15.2143 113.713 15.6934 113.713 16.2992V20.4839C113.713 21.0193 113.54 21.442 113.196 21.7519C112.851 22.0619 112.384 22.2169 111.795 22.2169C111.206 22.2169 110.74 22.0619 110.395 21.7519C110.05 21.442 109.878 21.0193 109.878 20.4839V13.1713C109.878 12.6782 110.057 12.2766 110.417 11.9666C110.776 11.6426 111.242 11.4805 111.817 11.4805C112.363 11.4805 112.793 11.6285 113.109 11.9244C113.44 12.2202 113.605 12.6077 113.605 13.0868C113.978 12.5514 114.459 12.1428 115.048 11.861C115.637 11.5792 116.291 11.4383 117.009 11.4383Z" fill="#307B51"/>
<path d="M128.602 11.4383C130.239 11.4383 131.446 11.8257 132.221 12.6007C133.011 13.3615 133.406 14.5239 133.406 16.0879V20.505C133.406 21.0404 133.241 21.4631 132.911 21.7731C132.595 22.069 132.149 22.2169 131.575 22.2169C131.072 22.2169 130.656 22.076 130.325 21.7942C130.009 21.5124 129.837 21.132 129.808 20.6529C129.607 21.1602 129.27 21.5547 128.796 21.8365C128.322 22.1183 127.755 22.2592 127.094 22.2592C126.361 22.2592 125.701 22.1183 125.112 21.8365C124.523 21.5406 124.056 21.139 123.712 20.6318C123.381 20.1105 123.216 19.5258 123.216 18.8776C123.216 18.1309 123.41 17.5391 123.798 17.1023C124.2 16.6515 124.832 16.3274 125.694 16.1301C126.555 15.9329 127.719 15.8343 129.184 15.8343H129.765V15.5806C129.765 15.0875 129.65 14.7353 129.421 14.5239C129.191 14.2985 128.803 14.1858 128.257 14.1858C127.668 14.1858 126.807 14.383 125.672 14.7775C125.342 14.8902 125.062 14.9466 124.832 14.9466C124.473 14.9466 124.186 14.8198 123.97 14.5662C123.755 14.3126 123.647 13.9815 123.647 13.5729C123.647 13.2629 123.712 13.0093 123.841 12.812C123.97 12.6148 124.178 12.4386 124.466 12.2836C124.968 12.03 125.6 11.8257 126.361 11.6707C127.123 11.5158 127.869 11.4383 128.602 11.4383ZM127.999 19.7442C128.516 19.7442 128.939 19.568 129.27 19.2158C129.6 18.8495 129.765 18.3845 129.765 17.8209V17.5673H129.421C128.501 17.5673 127.848 17.6518 127.46 17.8209C127.072 17.9759 126.878 18.2436 126.878 18.624C126.878 18.9481 126.979 19.2158 127.18 19.4271C127.396 19.6385 127.668 19.7442 127.999 19.7442Z" fill="#307B51"/>
<path d="M143.325 11.4383C144.23 11.4383 145.034 11.6707 145.738 12.1357C146.456 12.5866 147.009 13.2277 147.397 14.059C147.799 14.8902 148 15.8413 148 16.9121C148 17.9829 147.799 18.927 147.397 19.7442C147.009 20.5473 146.463 21.1672 145.76 21.604C145.056 22.0408 144.244 22.2592 143.325 22.2592C142.65 22.2592 142.025 22.1253 141.451 21.8576C140.891 21.5899 140.453 21.2306 140.137 20.7798V24.3726C140.137 24.8658 139.964 25.2603 139.62 25.5562C139.275 25.8521 138.823 26 138.262 26C137.674 26 137.2 25.838 136.841 25.5139C136.482 25.2039 136.302 24.8024 136.302 24.3092V13.2136C136.302 12.6923 136.467 12.2766 136.798 11.9666C137.142 11.6426 137.602 11.4805 138.176 11.4805C138.722 11.4805 139.16 11.6214 139.49 11.9032C139.835 12.185 140.029 12.5584 140.072 13.0234C140.374 12.5302 140.812 12.1428 141.386 11.861C141.975 11.5792 142.621 11.4383 143.325 11.4383ZM142.162 19.4483C142.822 19.4483 143.325 19.2299 143.67 18.7931C144.029 18.3563 144.208 17.7293 144.208 16.9121C144.208 16.0527 144.029 15.3975 143.67 14.9466C143.311 14.4816 142.801 14.2492 142.14 14.2492C141.48 14.2492 140.97 14.4746 140.611 14.9255C140.252 15.3763 140.072 16.0245 140.072 16.8699C140.072 17.7011 140.252 18.3422 140.611 18.7931C140.97 19.2299 141.487 19.4483 142.162 19.4483Z" fill="#307B51"/>
<defs>
<linearGradient id="paint0_linear" x1="49.9702" y1="27.8081" x2="27.7349" y2="-15.187" gradientUnits="userSpaceOnUse">
<stop stop-color="#307B51"/>
<stop offset="1" stop-color="#31C070"/>
</linearGradient>
</defs>
</svg>
